<?xml version="1.0" encoding="UTF-8" standalone="no"?>
<!DOCTYPE svg PUBLIC "-//W3C//DTD SVG 1.1//EN" "http://www.w3.org/Graphics/SVG/1.1/DTD/svg11.dtd">
<svg version="1.1" xmlns="http://www.w3.org/2000/svg" xmlns:xlink="http://www.w3.org/1999/xlink" preserveAspectRatio="xMidYMid meet" viewBox="0 0 720 180" width="720" height="180"><defs><path d="M233.23 118.25L233.23 61.22L241.89 61.22L241.89 132.02L232.74 132.02L189.41 74.48L189.41 132.02L180.75 132.02L180.75 61.22L189.91 61.22L233.23 118.25Z" id="b15BjzrAKk"></path><path d="M293.73 132.51C268.09 132.51 255.26 120.22 255.26 95.63C255.26 72.36 267.64 60.72 292.39 60.72C299.49 60.72 306.09 61.71 312.2 63.69C312.2 64.49 312.2 70.82 312.2 71.62C306.09 69.3 299.82 68.15 293.38 68.15C274.07 68.15 264.42 77.31 264.42 95.63C264.42 115.26 273.92 125.09 292.94 125.09C295.97 125.09 299.34 124.69 303.04 123.9C303.04 122.29 303.04 114.27 303.04 99.84L312.2 99.84L312.2 129.24L312.2 129.24C304.29 131.42 298.13 132.51 293.73 132.51Z" id="b195P99hht"></path><path d="M326.81 61.22L335.96 61.22C335.96 87.3 335.96 101.79 335.96 104.69C335.96 118.28 342.73 125.09 356.26 125.09C369.79 125.09 376.56 118.28 376.56 104.69C376.56 101.79 376.56 87.3 376.56 61.22L385.72 61.22C385.72 87.3 385.72 101.79 385.72 104.69C385.72 123.24 375.9 132.51 356.26 132.51C336.62 132.52 326.81 123.24 326.81 104.69C326.81 98.89 326.81 84.4 326.81 61.22Z" id="a2AVgG7Hz"></path><path d="M448.26 132.02L402.06 132.02L402.06 61.22L411.22 61.22L411.22 124.59L448.26 124.59L448.26 132.02Z" id="c1IEAh7UB6"></path><path d="M522.37 132.02L512.22 132.02L503.06 109.73L479.65 109.73L482.17 102.32L500 102.32L486.78 70.23L461.47 132.02L451.97 132.02L487.17 51.88L522.37 132.02Z" id="b5R7hf2FUf"></path><path d="M532.03 61.22C550.15 61.22 560.22 61.22 562.23 61.22C575.7 61.22 582.43 66.88 582.43 78.2C582.43 87.41 575.85 94.23 562.68 98.64C564.3 100.87 572.4 111.99 586.98 132.02L574.9 132.02L552.38 100.18C552.38 96.59 552.38 94.6 552.38 94.2C565.91 92.05 572.67 86.85 572.67 78.6C572.67 72.07 568.91 68.79 561.39 68.79C560.04 68.79 553.31 68.79 541.19 68.79L541.19 132.02L532.03 132.02L532.03 132.02L532.03 132.02L532.03 61.22Z" id="a17E5LuIjl"></path><path d="M621.3 111.62C621.3 125.22 613.29 132.01 597.28 132.01C597.28 131.27 597.28 125.33 597.28 124.59C607.18 124.59 612.14 120.26 612.14 111.62C612.14 108.26 612.14 91.46 612.14 61.22L621.3 61.22C621.3 91.46 621.3 108.26 621.3 111.62Z" id="bbVA9ke0"></path><path d="M637.64 121.12C645.07 123.76 653.08 125.09 661.7 125.09C673.88 125.09 679.97 120.63 679.97 111.71C679.97 104.13 675.48 100.33 666.5 100.33C665.59 100.33 658.3 100.33 657.39 100.33C642.57 100.33 635.16 93.89 635.16 81.02C635.16 67.49 644.65 60.72 663.64 60.72C671.88 60.72 679.56 61.71 686.66 63.69C686.66 64.53 686.66 71.27 686.66 72.11C679.56 69.47 671.88 68.15 663.64 68.15C650.76 68.15 644.32 72.44 644.32 81.02C644.32 88.61 648.68 92.41 657.39 92.41C658.3 92.41 665.59 92.41 666.5 92.41C681.58 92.41 689.13 98.85 689.13 111.71C689.13 125.58 679.99 132.51 661.7 132.51C653.08 132.51 645.07 131.52 637.64 129.54C637.64 127.86 637.64 121.96 637.64 121.12Z" id="bOEFD94pY"></path><path d="M235.55 115.94L235.55 58.9L244.21 58.9L244.21 129.7L235.05 129.7L191.73 72.17L191.73 129.7L183.07 129.7L183.07 58.9L192.22 58.9L235.55 115.94Z" id="i23Yl7pVmb"></path><path d="M296.05 130.2C270.4 130.2 257.58 117.91 257.58 93.31C257.58 70.04 269.96 58.4 294.71 58.4C301.81 58.4 308.41 59.4 314.52 61.38C314.52 62.17 314.52 68.51 314.52 69.3C308.41 66.99 302.14 65.83 295.7 65.83C276.4 65.83 266.74 75 266.74 93.31C266.74 112.95 276.25 122.77 295.26 122.77C298.29 122.77 301.66 122.38 305.36 121.58C305.36 119.98 305.36 111.96 305.36 97.52L314.52 97.52L314.52 126.93L314.52 126.93C306.61 129.11 300.45 130.2 296.05 130.2Z" id="e2BbermoMP"></path><path d="M329.12 58.9L338.27 58.9C338.27 84.98 338.27 99.47 338.27 102.37C338.27 115.97 345.04 122.77 358.58 122.77C372.11 122.77 378.88 115.97 378.88 102.37C378.88 99.47 378.88 84.98 378.88 58.9L388.04 58.9C388.04 84.98 388.04 99.47 388.04 102.37C388.04 120.93 378.22 130.2 358.58 130.2C338.94 130.2 329.12 120.93 329.12 102.37C329.12 96.58 329.12 82.09 329.12 58.9Z" id="anwOmt8A2"></path><path d="M451.97 129.7L405.78 129.7L405.78 58.9L414.93 58.9L414.93 122.28L451.97 122.28L451.97 129.7Z" id="b9TMLiuL78"></path><path d="M522.37 129.7L512.22 129.7L503.06 107.42L479.64 107.42L482.17 100L499.99 100L486.78 67.91L461.47 129.7L451.97 129.7L487.17 49.56L522.37 129.7Z" id="b5rLBezIy5"></path><path d="M534.34 58.9C552.46 58.9 562.53 58.9 564.54 58.9C578.02 58.9 584.74 64.56 584.74 75.88C584.74 85.09 578.16 91.91 564.99 96.33C566.61 98.55 574.72 109.68 589.3 129.7L577.22 129.7L554.7 97.87C554.7 94.27 554.7 92.28 554.7 91.88C568.23 89.73 574.99 84.53 574.99 76.28C574.99 69.74 571.23 66.48 563.7 66.48C562.36 66.48 555.62 66.48 543.5 66.48C543.5 104.41 543.5 125.49 543.5 129.7C543.5 129.7 534.34 129.7 534.34 129.7C534.34 120.26 534.34 96.66 534.34 58.9Z" id="b4z3TruQl"></path><path d="M623.62 109.3C623.62 122.91 615.61 129.7 599.6 129.7C599.6 128.96 599.6 123.02 599.6 122.28C609.5 122.28 614.46 117.95 614.46 109.3C614.45 105.94 614.45 89.14 614.46 58.9L623.62 58.9C623.62 89.14 623.62 105.94 623.62 109.3Z" id="acQ6IwJQu"></path><path d="M639.95 118.81C647.38 121.45 655.4 122.77 664.01 122.77C676.19 122.77 682.29 118.31 682.29 109.4C682.29 101.82 677.79 98.01 668.82 98.01C667.9 98.01 660.61 98.01 659.7 98.01C644.89 98.01 637.47 91.58 637.47 78.7C637.47 65.17 646.96 58.4 665.95 58.4C674.2 58.4 681.87 59.4 688.97 61.38C688.97 62.22 688.97 68.95 688.97 69.79C681.87 67.15 674.2 65.83 665.95 65.83C653.07 65.83 646.64 70.12 646.64 78.7C646.64 86.29 650.99 90.09 659.7 90.09C660.61 90.09 667.9 90.09 668.82 90.09C683.89 90.09 691.44 96.53 691.44 109.4C691.44 123.26 682.3 130.2 664.01 130.2C655.4 130.2 647.38 129.2 639.95 127.22C639.95 125.54 639.95 119.65 639.95 118.81Z" id="a1xN0kJtST"></path><path d="M86.83 180.13L156.9 141.29L169.96 32.96L86.74 4.38L4.05 33.48L17.12 141.81L86.83 180.13Z" id="c1FYmsTOya"></path><path d="M149.54 136.11L161.71 39.22L86.55 13.59L86.55 170.97L149.54 136.11Z" id="f4Vo33Zsq4"></path><path d="M86.55 13.59L13.33 39.68L24.53 136.57L86.55 170.97L86.55 13.59Z" id="c2UQEDRRWn"></path><path d="M86.55 107.05L64.74 107.05L54.49 132.69L35.43 133.04L86.55 19.3L107.24 97.37L86.55 107.05ZM86.55 91.87L105.24 92.5L86.69 55.77L71.47 91.87L86.55 91.87Z" id="e1Q0uX375i"></path><path d="M86.59 91.9L86.55 107.02L110.56 107.05L121.79 133.04L140.03 133.38L86.55 19.3L86.69 55.77L103.95 91.9L86.59 91.9Z" id="c27fo108sz"></path></defs><g><g><g><use xlink:href="#b15BjzrAKk" opacity="1" fill="#cccccc" fill-opacity="1"></use><g><use xlink:href="#b15BjzrAKk" opacity="1" fill-opacity="0" stroke="#000000" stroke-width="1" stroke-opacity="0"></use></g></g><g><use xlink:href="#b195P99hht" opacity="1" fill="#cccccc" fill-opacity="1"></use><g><use xlink:href="#b195P99hht" opacity="1" fill-opacity="0" stroke="#000000" stroke-width="1" stroke-opacity="0"></use></g></g><g><use xlink:href="#a2AVgG7Hz" opacity="1" fill="#cccccc" fill-opacity="1"></use><g><use xlink:href="#a2AVgG7Hz" opacity="1" fill-opacity="0" stroke="#000000" stroke-width="1" stroke-opacity="0"></use></g></g><g><use xlink:href="#c1IEAh7UB6" opacity="1" fill="#cccccc" fill-opacity="1"></use><g><use xlink:href="#c1IEAh7UB6" opacity="1" fill-opacity="0" stroke="#000000" stroke-width="1" stroke-opacity="0"></use></g></g><g><use xlink:href="#b5R7hf2FUf" opacity="1" fill="#cccccc" fill-opacity="1"></use><g><use xlink:href="#b5R7hf2FUf" opacity="1" fill-opacity="0" stroke="#000000" stroke-width="1" stroke-opacity="0"></use></g></g><g><use xlink:href="#a17E5LuIjl" opacity="1" fill="#cccccc" fill-opacity="1"></use><g><use xlink:href="#a17E5LuIjl" opacity="1" fill-opacity="0" stroke="#000000" stroke-width="1" stroke-opacity="0"></use></g></g><g><use xlink:href="#bbVA9ke0" opacity="1" fill="#cccccc" fill-opacity="1"></use><g><use xlink:href="#bbVA9ke0" opacity="1" fill-opacity="0" stroke="#000000" stroke-width="1" stroke-opacity="0"></use></g></g><g><use xlink:href="#bOEFD94pY" opacity="1" fill="#cccccc" fill-opacity="1"></use><g><use xlink:href="#bOEFD94pY" opacity="1" fill-opacity="0" stroke="#000000" stroke-width="1" stroke-opacity="0"></use></g></g><g><use xlink:href="#i23Yl7pVmb" opacity="1" fill="#aaaaaa" fill-opacity="1"></use><g><use xlink:href="#i23Yl7pVmb" opacity="1" fill-opacity="0" stroke="#000000" stroke-width="1" stroke-opacity="0"></use></g></g><g><use xlink:href="#e2BbermoMP" opacity="1" fill="#aaaaaa" fill-opacity="1"></use><g><use xlink:href="#e2BbermoMP" opacity="1" fill-opacity="0" stroke="#000000" stroke-width="1" stroke-opacity="0"></use></g></g><g><use xlink:href="#anwOmt8A2" opacity="1" fill="#aaaaaa" fill-opacity="1"></use><g><use xlink:href="#anwOmt8A2" opacity="1" fill-opacity="0" stroke="#000000" stroke-width="1" stroke-opacity="0"></use></g></g><g><use xlink:href="#b9TMLiuL78" opacity="1" fill="#aaaaaa" fill-opacity="1"></use><g><use xlink:href="#b9TMLiuL78" opacity="1" fill-opacity="0" stroke="#000000" stroke-width="1" stroke-opacity="0"></use></g></g><g><use xlink:href="#b5rLBezIy5" opacity="1" fill="#aaaaaa" fill-opacity="1"></use><g><use xlink:href="#b5rLBezIy5" opacity="1" fill-opacity="0" stroke="#000000" stroke-width="1" stroke-opacity="0"></use></g></g><g><use xlink:href="#b4z3TruQl" opacity="1" fill="#aaaaaa" fill-opacity="1"></use><g><use xlink:href="#b4z3TruQl" opacity="1" fill-opacity="0" stroke="#000000" stroke-width="1" stroke-opacity="0"></use></g></g><g><use xlink:href="#acQ6IwJQu" opacity="1" fill="#a6120d" fill-opacity="1"></use><g><use xlink:href="#acQ6IwJQu" opacity="1" fill-opacity="0" stroke="#000000" stroke-width="1" stroke-opacity="0"></use></g></g><g><use xlink:href="#a1xN0kJtST" opacity="1" fill="#a6120d" fill-opacity="1"></use><g><use xlink:href="#a1xN0kJtST" opacity="1" fill-opacity="0" stroke="#000000" stroke-width="1" stroke-opacity="0"></use></g></g><g><use xlink:href="#c1FYmsTOya" opacity="1" fill="#b3b3b3" fill-opacity="1"></use><g><use xlink:href="#c1FYmsTOya" opacity="1" fill-opacity="0" stroke="#000000" stroke-width="1" stroke-opacity="0"></use></g></g><g><use xlink:href="#f4Vo33Zsq4" opacity="1" fill="#a6120d" fill-opacity="1"></use><g><use xlink:href="#f4Vo33Zsq4" opacity="1" fill-opacity="0" stroke="#000000" stroke-width="1" stroke-opacity="0"></use></g></g><g><use xlink:href="#c2UQEDRRWn" opacity="1" fill="#dd1b16" fill-opacity="1"></use><g><use xlink:href="#c2UQEDRRWn" opacity="1" fill-opacity="0" stroke="#000000" stroke-width="1" stroke-opacity="0"></use></g></g><g><use xlink:href="#e1Q0uX375i" opacity="1" fill="#f2f2f2" fill-opacity="1"></use><g><use xlink:href="#e1Q0uX375i" opacity="1" fill-opacity="0" stroke="#000000" stroke-width="1" stroke-opacity="0"></use></g></g><g><use xlink:href="#c27fo108sz" opacity="1" fill="#b3b3b3" fill-opacity="1"></use><g><use xlink:href="#c27fo108sz" opacity="1" fill-opacity="0" stroke="#000000" stroke-width="1" stroke-opacity="0"></use></g></g></g></g></svg>