<?xml version="1.0" encoding="UTF-8" standalone="no"?>
<!-- Generator: Adobe Illustrator 24.0.1, SVG Export Plug-In . SVG Version: 6.00 Build 0)  -->
<svg xmlns:dc="http://purl.org/dc/elements/1.1/" xmlns:cc="http://creativecommons.org/ns#" xmlns:rdf="http://www.w3.org/1999/02/22-rdf-syntax-ns#" xmlns:svg="http://www.w3.org/2000/svg" xmlns="http://www.w3.org/2000/svg" xmlns:sodipodi="http://sodipodi.sourceforge.net/DTD/sodipodi-0.dtd" xmlns:inkscape="http://www.inkscape.org/namespaces/inkscape" version="1.1" id="Layer_1" x="0px" y="0px" viewBox="15.699998 30.799999 254.89999 39.400002" xml:space="preserve" sodipodi:docname="logo_white.svg" width="254.89999" height="39.400002" inkscape:version="0.92.5 (2060ec1f9f, 2020-04-08)"><metadata id="metadata41"><rdf:RDF><cc:Work rdf:about=""><dc:format>image/svg+xml</dc:format><dc:type rdf:resource="http://purl.org/dc/dcmitype/StillImage"/><dc:title/></cc:Work></rdf:RDF></metadata><defs id="defs39"/><sodipodi:namedview pagecolor="#ffffff" bordercolor="#666666" borderopacity="1" objecttolerance="10" gridtolerance="10" guidetolerance="10" inkscape:pageopacity="0" inkscape:pageshadow="2" inkscape:window-width="1848" inkscape:window-height="1016" id="namedview37" showgrid="false" inkscape:pagecheckerboard="true" fit-margin-top="0" fit-margin-left="0" fit-margin-right="1" fit-margin-bottom="0" inkscape:zoom="7.7402543" inkscape:cx="223.94978" inkscape:cy="8.1382391" inkscape:window-x="0" inkscape:window-y="27" inkscape:window-maximized="1" inkscape:current-layer="g32"/>
<style type="text/css" id="style2">
	.st0{fill:#FFFFFF;}
	.st1{fill:#ED363D;}
</style>
<g id="g34" transform="translate(-2e-6)">
	<g id="g24">
		<path class="st0" d="m 78.6,61.5 c -2.2,2 -4.5,2.9 -7.4,2.9 C 65.3,64.4 61,60 61,54.2 c 0,-6.1 4.2,-10.4 10.2,-10.4 2.9,0 5.2,1 7.7,3.2 l -3.5,3.2 c -1.2,-1.2 -2.4,-1.7 -4,-1.7 -2.9,0 -5.1,2.4 -5.1,5.5 0,3.3 2.2,5.7 5.3,5.7 1.4,0 2.4,-0.4 3.7,-1.6 z" id="path4" inkscape:connector-curvature="0" style="fill:#ffffff"/>
		<path class="st0" d="m 100.8,54.3 c 0,5.7 -4.6,10.1 -10.5,10.1 -6.1,0 -10.4,-4.3 -10.4,-10.3 0,-6.1 4.3,-10.3 10.5,-10.3 6,0 10.4,4.4 10.4,10.5 M 85.2,54.1 c 0,3.3 2.1,5.6 5.2,5.6 3,0 5.2,-2.3 5.2,-5.5 0,-3.5 -2,-5.7 -5.1,-5.7 -3.2,0 -5.3,2.2 -5.3,5.6" id="path6" inkscape:connector-curvature="0" style="fill:#ffffff"/>
		<path class="st0" d="m 110,44.4 v 2.4 c 1.4,-2.2 2.8,-3 5.2,-3 1.8,0 3.6,0.7 4.7,1.8 1.2,1.2 1.7,2.8 1.7,5.9 v 12.2 h -5.3 V 51.8 c 0,-1.1 -0.1,-1.7 -0.5,-2.2 -0.5,-0.8 -1.5,-1.3 -2.5,-1.3 -2,0 -3.4,1.5 -3.4,3.8 v 11.7 h -5.3 V 44.4 Z" id="path8" inkscape:connector-curvature="0" style="fill:#ffffff"/>
		<path class="st0" d="m 132.4,63.7 h -5.3 V 48.9 H 125 v -4.4 h 2.1 v -1.1 c 0,-5.2 2.5,-7.6 7.8,-7.4 v 4.9 c -1.8,0.2 -2.5,0.9 -2.5,2.5 v 1.1 h 2.5 v 4.4 h -2.5 z" id="path10" inkscape:connector-curvature="0" style="fill:#ffffff"/>
		<path class="st0" d="m 144.2,39 c 0,1.6 -1.2,2.9 -2.9,2.9 -1.7,0 -3,-1.2 -3,-2.9 0,-1.7 1.2,-3 3,-3 1.7,0 2.9,1.3 2.9,3 m -0.3,24.7 h -5.3 V 44.4 h 5.3 z" id="path12" inkscape:connector-curvature="0" style="fill:#ffffff"/>
		<path class="st0" d="m 154.6,58 c 0,0.9 0.3,1.2 1.5,1.2 h 0.9 v 4.4 h -4.2 c -2.6,-0.1 -3.5,-1.1 -3.5,-3.7 V 48.8 h -2.2 v -4.4 h 2.2 v -5.2 h 5.3 v 5.2 h 2.4 v 4.4 h -2.4 z" id="path14" inkscape:connector-curvature="0" style="fill:#ffffff"/>
		<path class="st0" d="m 177.5,44.4 v 12.2 c 0,2.8 -0.6,4.4 -2.2,5.7 -1.5,1.3 -3.7,2 -6.2,2 -2.7,0 -4.9,-0.7 -6.4,-2.1 -1.4,-1.2 -2,-3.1 -2,-5.6 V 44.4 h 5.3 v 11.8 c 0,2.2 1.3,3.6 3.2,3.6 2,0 3.1,-1.2 3.1,-3.3 V 44.4 Z" id="path16" inkscape:connector-curvature="0" style="fill:#ffffff"/>
		<path class="st0" d="m 187.6,44.4 v 2.8 c 0.5,-1.4 0.9,-2 1.7,-2.6 0.8,-0.6 2,-0.9 3.1,-0.9 0.1,0 0.3,0 0.6,0 v 5.4 c -0.4,0 -0.8,-0.1 -1.1,-0.1 -1.5,0 -2.8,0.7 -3.5,1.7 -0.6,0.9 -0.8,1.7 -0.8,3.5 v 9.3 h -5.3 V 44.4 Z" id="path18" inkscape:connector-curvature="0" style="fill:#ffffff"/>
		<path class="st0" d="m 210.9,44.4 h 5.3 v 19.2 h -5.3 V 61 c -1.8,2.3 -3.9,3.3 -6.7,3.3 -5.4,0 -9.3,-4.2 -9.3,-10.1 0,-6.1 4.1,-10.5 9.7,-10.5 2.6,0 4.4,0.9 6.3,3.1 z m -10.3,9.8 c 0,3.4 2.2,5.9 5.1,5.9 3,0 5.3,-2.7 5.3,-6.1 0,-3.4 -2.2,-5.8 -5.3,-5.8 -3,0 -5.1,2.5 -5.1,6" id="path20" inkscape:connector-curvature="0" style="fill:#ffffff"/>
		<path class="st1" d="M 49.1,58.5 V 60 c 0,5.6 -4.6,10.2 -10.2,10.2 h -13 C 20.3,70.2 15.7,65.6 15.7,60 v -8.9 c 0,-5.6 4.6,-10.2 10.2,-10.2 h 13 c 5.6,0 10.2,4.6 10.2,10.2 v 1.5 h -7.7 v -1.5 c 0,-1.4 -1.1,-2.5 -2.5,-2.5 h -13 c -1.4,0 -2.5,1.1 -2.5,2.5 V 60 c 0,1.4 1.1,2.5 2.5,2.5 h 13 c 1.4,0 2.5,-1.1 2.5,-2.5 V 58.5 Z M 44,30.8 H 20.8 v 6.7 H 44 Z" id="path22" inkscape:connector-curvature="0" style="fill:#ed363d"/>
	</g>
	<g id="g32">
		<path class="st0" d="m 225,35.6 3.5,0.9 -2.3,8.8 -4.5,-1.2 z" id="path26" inkscape:connector-curvature="0" style="fill:#ffffff"/>
		<path class="st0" d="m 247.8,58.9 v 4.6 h -16.6 l 9.6,-14.6 c 2.1,-3.2 2.5,-4.1 2.5,-5.4 0,-1.8 -1.4,-3 -3.2,-3 -1.5,0 -2.6,0.7 -3.1,1.9 -0.3,0.7 -0.4,1.2 -0.4,2.6 h -4.8 c 0,-5.8 3.2,-9.3 8.7,-9.3 4.8,0 8.2,3 8.2,7.3 0,2.5 -0.9,4.8 -3.4,8.4 l -5.1,7.5 z" id="path28" inkscape:connector-curvature="0" style="fill:#ffffff"/>
		
	<path inkscape:connector-curvature="0" class="st0" d="m 268.7,58.9 v 4.6 h -16.6 l 9.6,-14.6 c 2.1,-3.2 2.5,-4.1 2.5,-5.4 0,-1.8 -1.4,-3 -3.2,-3 -1.5,0 -2.6,0.7 -3.1,1.9 -0.3,0.7 -0.4,1.2 -0.4,2.6 h -4.8 c 0,-5.8 3.2,-9.3 8.7,-9.3 4.8,0 8.2,3 8.2,7.3 0,2.5 -0.9,4.8 -3.4,8.4 l -5.1,7.5 z" id="path28-3" style="fill:#ffffff"/></g>
</g>
</svg>