<svg width="189" height="64" viewBox="0 0 189 64" fill="none" xmlns="http://www.w3.org/2000/svg">
<g clip-path="url(#clip0)">
<path d="M14.267 59.6775H5.39808L3.66863 63.7574H0.276245L8.25832 46.1365H11.4955L19.4997 63.7574H16.063L14.267 59.6775ZM13.1806 57.0972L9.83256 49.4004L6.5067 57.0972H13.1806Z" fill="#323232"/>
<path d="M29.0782 54.9359C29.0782 49.6651 33.1358 45.8718 38.568 45.8718C41.4505 45.8718 43.9338 46.9084 45.5745 48.827L43.446 50.8119C42.16 49.4225 40.5636 48.7388 38.7011 48.7388C35.0205 48.7388 32.3819 51.2971 32.3819 54.9359C32.3819 58.5527 35.0426 61.133 38.7011 61.133C40.5414 61.133 42.1378 60.4494 43.446 59.0379L45.5745 61.0448C43.9338 62.9635 41.4505 64 38.5459 64C33.1358 64 29.0782 60.2068 29.0782 54.9359Z" fill="#323232"/>
<path d="M68.7225 59.6775H59.8535L58.1241 63.7574H54.7317L62.7138 46.1365H65.9509L73.9552 63.7574H70.5184L68.7225 59.6775ZM67.636 57.0972L64.288 49.4004L60.9621 57.0972H67.636Z" fill="#323232"/>
<path d="M85.0414 46.1144H92.7796C98.5222 46.1144 102.447 49.643 102.447 54.9359C102.447 60.2288 98.5222 63.7574 92.7796 63.7574H85.0414V46.1144ZM92.6465 60.9786C96.5932 60.9786 99.1431 58.5968 99.1431 54.9359C99.1431 51.275 96.5932 48.8932 92.6465 48.8932H88.3451V60.9786H92.6465Z" fill="#323232"/>
<path d="M128.122 61.0007V63.7574H114.841V46.1144H127.768V48.8491H118.123V53.4363H126.681V56.1268H118.123V60.9786L128.122 61.0007Z" fill="#323232"/>
<path d="M156.924 63.7574L156.902 52.0689L151.071 61.7285H149.607L143.776 52.2012V63.7574H140.628V46.1144H143.333L150.361 57.8029L157.279 46.1144H159.984L160.006 63.7354L156.924 63.7574Z" fill="#323232"/>
<path d="M181.336 57.5383V63.7574H178.055V57.5824L171.07 46.1144H174.596L179.784 54.6933L185.017 46.1144H188.254L181.336 57.5383Z" fill="#323232"/>
<path d="M63.3347 17.0917C62.1152 16.43 60.8957 16.0992 59.6762 16.0992C58.4568 16.0992 57.2151 16.4521 55.9956 17.1358C54.754 17.8194 53.8227 18.7898 53.1575 20.0028C52.4924 21.2157 52.1598 22.5389 52.1598 23.9724C52.1598 25.2957 52.4924 26.5527 53.1354 27.7657C53.7784 28.9786 54.7318 29.9049 55.9513 30.6106C57.1708 31.2943 58.4124 31.6471 59.6984 31.6471C60.9844 31.6471 62.2261 31.3163 63.4012 30.6327C64.5985 29.949 65.5298 29.0227 66.1949 27.7877C66.8601 26.5748 67.2149 25.2516 67.2149 23.8181C67.2149 22.3625 66.8823 21.0393 66.1949 19.8704C65.5076 18.6795 64.5542 17.7533 63.3347 17.0917Z" fill="#F20B32"/>
<path d="M74.7978 0H6.24064C2.93695 0 0.254089 2.6685 0.254089 5.95451V35.1316C0.254089 38.4176 2.93695 41.0861 6.24064 41.0861H74.7756C78.0793 41.0861 80.7622 38.4176 80.7622 35.1316V5.95451C80.7843 2.6685 78.1015 0 74.7978 0ZM15.42 33.3673H12.9811V14.4011H15.42V33.3673ZM15.42 12.0634H12.9811V7.69676H15.42V12.0634ZM36.7499 33.3673H34.3109V22.9359C34.3109 21.4142 34.0449 20.1351 33.4906 19.0765C32.9362 18.04 32.1824 17.2681 31.2068 16.805C30.2312 16.3198 29.2778 16.0992 28.3244 16.0992C27.3044 16.0992 26.3067 16.3639 25.3311 16.8932C24.3555 17.4225 23.6238 18.1943 23.136 19.2088C22.6482 20.2453 22.4043 21.4804 22.4043 22.958V33.3894H19.9654V14.4232H22.4043V16.8491H22.4709C23.8012 14.9083 25.8189 13.938 28.5239 13.938C29.8099 13.938 30.9629 14.1806 32.005 14.6437C33.0471 15.1068 33.9562 15.7684 34.7322 16.6285C35.2422 17.2019 35.6634 17.9297 35.996 18.8119C36.4838 20.091 36.7499 21.4804 36.7499 22.98V33.3673ZM42.6034 33.3673V16.5844H39.6323V14.4011H42.6034C42.6478 13.0558 42.7808 11.9752 43.0247 11.1813C43.2686 10.3873 43.6677 9.70365 44.2663 9.1082C44.8428 8.51275 45.5967 8.07167 46.5058 7.76292C47.4148 7.45417 48.5456 7.29979 49.9203 7.25569V9.50517C48.6121 9.52722 47.5922 9.72571 46.8827 10.1227C46.1732 10.4976 45.6632 11.071 45.375 11.8208C45.1532 12.3501 45.0424 13.2102 45.0424 14.4232H49.9203V16.6065H45.0424V33.3894L42.6034 33.3673ZM68.3234 28.7802C67.4365 30.368 66.1949 31.603 64.6206 32.5072C63.0464 33.3894 61.4056 33.8305 59.6762 33.8305C58.4567 33.8305 57.2816 33.6099 56.1508 33.1909C55.0422 32.7719 54.0444 32.1764 53.1797 31.4045C52.3149 30.6327 51.6498 29.8608 51.162 29.0669C50.6742 28.2729 50.3194 27.4569 50.0755 26.5748C49.8316 25.7147 49.6986 24.8546 49.6986 23.9945C49.6986 22.561 49.9647 21.2598 50.4746 20.0248C51.0068 18.8119 51.6941 17.7753 52.5588 16.9152C53.4236 16.0551 54.377 15.3715 55.4191 14.8863C56.7716 14.2247 58.1906 13.8939 59.6762 13.8939C61.3835 13.8939 63.0242 14.3349 64.5985 15.2171C66.1727 16.0992 67.4144 17.3343 68.3013 18.9442C69.1882 20.532 69.6538 22.164 69.6538 23.8622C69.6759 25.5603 69.2103 27.1923 68.3234 28.7802Z" fill="#F20B32"/>
<path d="M85.5515 24.2812H92.1589C92.1589 27.2584 95.1521 27.7436 96.6377 27.8098C97.8794 27.8098 99.6531 27.5231 99.6531 26.0455C99.6531 23.2888 85.9949 24.4576 85.9949 15.4376C85.9949 10.2109 90.9837 7.82907 94.4648 7.82907C97.4581 7.82907 100.474 8.77738 101.893 11.4459L102.247 8.46863H108.367V17.3563H101.937C101.937 14.7319 99.8749 13.2543 97.3916 13.2543C96.3495 13.2543 94.9304 13.8939 94.9304 15.1289C94.9304 18.7677 109.01 17.9297 109.01 26.244C109.01 31.7574 103.822 33.7422 99.5866 33.7422C95.9947 33.7422 93.5114 32.0882 92.1589 30.4783L91.7598 33.2129H85.5293L85.5515 24.2812Z" fill="#F20B32"/>
<path d="M110.828 33.1909V28.5596H112.314V11.2474H110.828V6.63818H119.431V17.6871C119.83 17.0476 122.424 14.8642 125.018 14.8642C130.539 14.8642 131.249 18.9442 131.249 22.6492V28.5596H132.912V33.1909H123.777V23.5755C123.777 22.3625 123.777 20.2895 121.67 20.2895C119.852 20.2895 119.431 22.0538 119.431 23.5755V28.5596H121.981V33.1909H110.828Z" fill="#F20B32"/>
<path d="M134.73 16.9814C136.149 16.1433 139.209 14.4673 142.49 14.4673C146.769 14.4673 152.135 16.0551 152.135 21.767V28.6699H154.264V33.1909H146.659L145.816 31.603C144.508 33.4114 142.291 33.8746 141.005 33.8746C137.634 33.8746 133.998 32.0662 133.998 27.9642C133.998 23.9724 137.368 21.4583 141.404 21.4583C143.51 21.4583 144.752 22.4728 144.929 22.6933V21.4583C144.929 19.8704 143.466 19.4735 141.559 19.4735C139.453 19.4735 137.612 20.3556 136.26 21.1054L134.73 16.9814ZM144.907 26.7512C144.796 26.5748 144.308 25.7147 142.801 25.7147C141.382 25.7147 140.739 26.4866 140.739 27.5892C140.739 28.5817 141.559 29.2433 142.623 29.2433C143.688 29.2433 144.574 28.6037 144.907 28.0744V26.7512Z" fill="#F20B32"/>
<path d="M155.683 33.1909V28.5596H157.257V20.091H155.727V15.4817H162.423L163.488 17.7533C164.419 16.0551 165.328 14.5996 169.008 14.5996V20.9731C165.816 20.9731 163.998 21.7891 163.998 24.8987V28.5376H165.771V33.1688L155.683 33.1909Z" fill="#F20B32"/>
<path d="M188.254 30.7429C185.616 33.0145 182.778 33.8305 179.075 33.8305C174.662 33.8305 169.674 31.0296 169.674 24.2371C169.674 18.4369 173.864 14.9966 179.252 14.9966C183.487 14.9966 186.724 17.1578 187.744 20.1351C188.165 21.3701 188.565 24.1048 187.811 26.1116H176.614C176.835 27.06 177.301 29.0227 180.272 29.0227C181.492 29.0227 183.332 28.9125 185.261 27.3246L188.254 30.7429ZM182.112 22.6051C182.068 21.2598 181.758 19.7822 179.474 19.7822C177.301 19.7822 176.813 21.7229 176.724 22.6051H182.112Z" fill="#F20B32"/>
</g>
<defs>
<clipPath id="clip0">
<rect width="188" height="64" fill="white" transform="translate(0.254089)"/>
</clipPath>
</defs>
</svg>
