<svg width="189" height="50" viewBox="0 0 189 50" fill="none" xmlns="http://www.w3.org/2000/svg">
<path d="M7.55778 3.4402C7.55778 5.50092 5.95305 6.8804 3.77889 6.8804C1.62199 6.8804 0 5.50092 0 3.4402C0 1.37949 1.60473 0 3.77889 0C5.93579 0 7.55778 1.37949 7.55778 3.4402ZM0.759229 28.6967V9.38392H6.79855V28.6967H0.759229Z" fill="#FF4040"/>
<path d="M23.3118 28.6967V15.0892H17.1172V28.6967H11.0606V9.3839H29.3511V28.6967H23.3118Z" fill="#FF4040"/>
<path d="M35.5458 14.987H32.1983V9.36689H35.5458V1.63495H47.5037V7.25508H41.6024V9.36689H47.5037V14.987H41.6024V28.6797H35.5458V14.987Z" fill="#FF4040"/>
<path d="M70.1079 19.0403C70.1079 24.8648 65.5871 29.1566 59.8583 29.1566C54.1296 29.1566 49.6087 24.8308 49.6087 19.0403C49.6087 13.2158 54.1986 8.92407 59.8583 8.92407C65.5181 8.92407 70.1079 13.1988 70.1079 19.0403ZM55.7344 19.0403C55.7344 21.7482 57.5461 23.4683 59.8583 23.4683C62.205 23.4683 63.9823 21.7482 63.9823 19.0403C63.9823 16.3665 62.205 14.6123 59.8583 14.6294C57.5289 14.6123 55.7344 16.3665 55.7344 19.0403Z" fill="#FF4040"/>
<path d="M125.704 9.38393V28.6968H119.648V15.0892H113.315V28.6968H107.276V1.65199H113.315V9.38393H125.704Z" fill="#FF4040"/>
<path d="M143.633 11.5638V9.3839H149.689V28.6967H143.633V26.619C142.373 28.1347 140.561 29.1566 138.076 29.1566C133.09 29.1566 129.259 25.0181 129.259 19.0403C129.259 13.0285 133.176 8.92407 138.042 8.92407C140.544 8.92407 142.373 9.99701 143.633 11.5638ZM135.385 19.0403C135.385 21.7482 137.196 23.4683 139.509 23.4683C141.855 23.4683 143.633 21.7482 143.633 19.0403C143.633 16.3665 141.855 14.6123 139.509 14.6294C137.162 14.6123 135.385 16.3665 135.385 19.0403Z" fill="#FF4040"/>
<path d="M159.99 15.0722V28.6797H153.951V9.3839H166.651V15.0892H159.99V15.0722Z" fill="#FF4040"/>
<path d="M178.885 8.92407C183.906 8.92407 188.272 12.194 188.927 17.4735C189.066 18.6486 188.979 19.5001 188.893 20.1814H174.933C175.141 22.6338 176.78 24.0984 179.092 24.0984C180.8 24.0984 182.336 23.298 182.698 21.6119H188.927C188.168 26.4146 183.837 29.1566 179.058 29.1566C173.053 29.1566 168.773 24.7626 168.773 19.0573C168.773 13.318 173.087 8.92407 178.885 8.92407ZM175.365 16.2473H182.543C182.043 14.4591 180.421 13.8119 178.988 13.8119C177.297 13.7949 176.021 14.6975 175.365 16.2473Z" fill="#FF4040"/>
<path d="M79.7191 16.3154H103.014V28.6968H73.6625V23.9452H98.2167V21.3906H73.6625V9.36691H103.014V14.1015H79.7191V16.3154Z" fill="#FF4040"/>
<path d="M31.1999 38.132C29.9819 38.132 29.0579 38.734 28.4979 39.616V38.3H26.9159V49.5H28.4979V44.712C29.0579 45.58 29.9819 46.168 31.1859 46.168C33.2439 46.168 34.7419 44.502 34.7419 42.15C34.7419 39.798 33.2159 38.132 31.1999 38.132ZM30.8499 44.656C29.5059 44.656 28.4839 43.634 28.4839 42.15C28.4839 40.68 29.5059 39.644 30.8499 39.644C32.1939 39.644 33.1459 40.68 33.1459 42.15C33.1459 43.634 32.1799 44.656 30.8499 44.656ZM40.0722 38.132C37.8742 38.132 36.0822 39.826 36.0822 42.15C36.0822 44.446 37.8462 46.168 40.0722 46.168C42.3122 46.168 44.0622 44.46 44.0622 42.15C44.0622 39.826 42.2842 38.132 40.0722 38.132ZM40.0722 39.644C41.4022 39.644 42.4662 40.666 42.4662 42.15C42.4662 43.634 41.4162 44.656 40.0722 44.656C38.7282 44.656 37.6782 43.634 37.6782 42.15C37.6782 40.666 38.7422 39.644 40.0722 39.644ZM54.6047 38.132C53.3867 38.132 52.5187 38.748 52.0007 39.742C51.6227 38.706 50.7967 38.132 49.6207 38.132C48.5147 38.132 47.7587 38.65 47.2267 39.532V38.3H45.6447V46H47.2267V42.01C47.2267 40.61 47.8567 39.644 49.1027 39.644C50.1667 39.644 50.6287 40.246 50.6287 41.394V46H52.2247L52.2107 42.01C52.2107 40.61 52.8547 39.644 54.1007 39.644C55.1647 39.644 55.6267 40.246 55.6267 41.394V46H57.2087V41.058C57.2087 39.224 56.2287 38.132 54.6047 38.132ZM62.7125 38.132C60.3885 38.132 58.7365 39.84 58.7365 42.164C58.7365 44.488 60.4025 46.168 62.7405 46.168C64.3785 46.168 65.8485 45.356 66.4505 43.634H64.8125C64.4485 44.39 63.6785 44.782 62.7545 44.782C61.4665 44.782 60.4725 43.998 60.3465 42.584H66.6045C66.7585 40.05 65.1905 38.132 62.7125 38.132ZM62.7125 39.504C63.8745 39.504 64.6725 40.246 64.9105 41.296H60.4305C60.6965 40.26 61.5085 39.504 62.7125 39.504ZM72.2926 38.132C71.0746 38.132 70.1926 38.748 69.7306 39.826V38.3H68.1486V46H69.7306V42.472C69.7306 40.568 70.8366 39.756 72.2786 39.756C72.4886 39.756 72.6146 39.77 72.7546 39.784V38.174C72.6426 38.146 72.4886 38.132 72.2926 38.132ZM79.9512 38.3V39.616C79.3912 38.734 78.4672 38.132 77.2492 38.132C75.2332 38.132 73.7072 39.798 73.7072 42.15C73.7072 44.502 75.2052 46.168 77.2632 46.168C78.4672 46.168 79.3912 45.594 79.9512 44.712V46H81.5332V38.3H79.9512ZM77.5992 44.656C76.2692 44.656 75.3032 43.634 75.3032 42.15C75.3032 40.68 76.2552 39.644 77.5992 39.644C78.9432 39.644 79.9652 40.68 79.9652 42.15C79.9652 43.634 78.9432 44.656 77.5992 44.656ZM87.5371 38.132C86.3331 38.132 85.5071 38.678 84.9611 39.574V38.3H83.3791V46H84.9611V42.01C84.9611 40.526 85.6891 39.644 87.0471 39.644C88.2091 39.644 88.7271 40.274 88.7271 41.464V46H90.3091V41.142C90.3091 39.266 89.2731 38.132 87.5371 38.132ZM92.8721 34.828C92.2981 34.828 91.8501 35.234 91.8501 35.794C91.8501 36.368 92.2981 36.788 92.8721 36.788C93.4741 36.788 93.9081 36.368 93.9081 35.794C93.9081 35.234 93.4741 34.828 92.8721 34.828ZM92.0881 46H93.6701V38.3H92.0881V46ZM101.498 38.3V39.616C100.938 38.734 100.014 38.132 98.796 38.132C96.78 38.132 95.254 39.798 95.254 42.15C95.254 44.502 96.752 46.168 98.81 46.168C100.014 46.168 100.938 45.594 101.498 44.712V46H103.08V38.3H101.498ZM99.146 44.656C97.816 44.656 96.85 43.634 96.85 42.15C96.85 40.68 97.802 39.644 99.146 39.644C100.49 39.644 101.512 40.68 101.512 42.15C101.512 43.634 100.49 44.656 99.146 44.656ZM109.084 38.132C107.88 38.132 107.054 38.678 106.508 39.574V38.3H104.926V46H106.508V42.01C106.508 40.526 107.236 39.644 108.594 39.644C109.756 39.644 110.274 40.274 110.274 41.464V46H111.856V41.142C111.856 39.266 110.82 38.132 109.084 38.132ZM122.228 38.118C121.248 38.118 120.464 38.552 119.988 39.49V38.3H117.608V46H119.988V42.668C119.988 40.918 121.066 40.582 122.186 40.582C122.41 40.582 122.508 40.596 122.662 40.61V38.16C122.55 38.132 122.41 38.118 122.228 38.118ZM127.393 38.118C125.167 38.118 123.361 39.826 123.361 42.15C123.361 44.46 125.139 46.182 127.393 46.182C129.647 46.182 131.425 44.474 131.425 42.15C131.425 39.826 129.619 38.118 127.393 38.118ZM127.393 40.386C128.317 40.386 129.017 41.086 129.017 42.15C129.017 43.228 128.317 43.914 127.393 43.914C126.483 43.914 125.769 43.228 125.769 42.15C125.769 41.086 126.469 40.386 127.393 40.386ZM138.204 38.3V39.168C137.714 38.538 136.986 38.118 136.006 38.118C134.088 38.118 132.548 39.756 132.548 42.15C132.548 44.53 134.06 46.182 136.02 46.182C137 46.182 137.7 45.776 138.19 45.174V46H140.57L140.584 38.3H138.204ZM136.58 43.914C135.67 43.914 134.956 43.228 134.956 42.15C134.956 41.086 135.656 40.386 136.58 40.386C137.504 40.386 138.204 41.086 138.204 42.15C138.204 43.228 137.504 43.914 136.58 43.914ZM147.641 35.22V39.168C147.151 38.538 146.423 38.118 145.443 38.118C143.525 38.118 141.985 39.756 141.985 42.15C141.985 44.53 143.497 46.182 145.457 46.182C146.437 46.182 147.137 45.776 147.641 45.174V46H150.021V35.22H147.641ZM146.017 43.914C145.107 43.914 144.393 43.228 144.393 42.15C144.393 41.086 145.093 40.386 146.017 40.386C146.941 40.386 147.641 41.086 147.641 42.15C147.641 43.228 146.941 43.914 146.017 43.914ZM154.961 46.182C156.935 46.182 158.489 45.3 158.489 43.522C158.489 41.926 157.243 41.464 154.947 40.96C154.023 40.764 153.799 40.736 153.799 40.47C153.799 40.134 154.149 39.924 154.849 39.924C155.605 39.924 155.913 40.176 156.011 40.54H158.419C158.181 39.07 157.117 38.132 154.947 38.132C152.721 38.132 151.391 39.112 151.391 40.778C151.391 42.136 152.287 42.724 154.485 43.2C155.801 43.48 156.039 43.55 156.039 43.858C156.039 44.18 155.787 44.39 154.989 44.39C153.883 44.39 153.575 43.984 153.477 43.564H151.069C151.349 45.188 152.875 46.182 154.961 46.182ZM164.353 38.118C163.401 38.118 162.687 38.482 162.127 39.168V35.22H159.747V46H162.127V41.912C162.127 40.848 162.603 40.386 163.527 40.386C164.479 40.386 164.731 40.876 164.731 41.716V46H167.111V41.184C167.111 39.308 166.061 38.118 164.353 38.118ZM172.332 38.118C170.106 38.118 168.3 39.826 168.3 42.15C168.3 44.46 170.078 46.182 172.332 46.182C174.586 46.182 176.364 44.474 176.364 42.15C176.364 39.826 174.558 38.118 172.332 38.118ZM172.332 40.386C173.256 40.386 173.956 41.086 173.956 42.15C173.956 43.228 173.256 43.914 172.332 43.914C171.422 43.914 170.708 43.228 170.708 42.15C170.708 41.086 171.408 40.386 172.332 40.386ZM186.374 38.3L185.744 40.722L185.268 43.242L184.778 40.722L184.162 38.3H181.348L180.718 40.722L180.242 43.27L179.752 40.722L179.136 38.3H176.784L178.828 46H181.558L182.244 43.41L182.636 40.638H182.874L183.266 43.41L183.952 46H186.682L188.726 38.3H186.374Z" fill="#FF4040"/>
</svg>
