<svg width="600" height="200" viewBox="0 0 88 30" version="1.1" xmlns="http://www.w3.org/2000/svg" xmlns:xlink="http://www.w3.org/1999/xlink" class="kahoot-logo">
  <title>
    Kahoot!
  </title>
  <g stroke="none" stroke-width="1" fill="none" fill-rule="evenodd">
    <path d="M59.4563337 25.5366087C55.5222657 25.9279665 52.3340315 22.7810536 52.3340315 18.5078772 52.3340315 14.2343593 55.3409298 10.8227848 59.0502914 10.8886941 62.75897 10.9535789 65.9482288 14.1004918 66.1725936 17.9174256 66.3969584 21.7336764 63.3900601 25.1449094 59.4563337 25.5366087ZM37.7762727 17.5267508C38.000979 13.7101585 41.1895547 10.5635871 44.8985748 10.4980193 48.6075949 10.432793 51.6144932 13.8443675 51.6144932 18.1175439 51.6144932 22.3910618 48.426259 25.5379747 44.4921911 25.1466169 40.5584646 24.7552591 37.5519078 21.3436845 37.7762727 17.5267508ZM0 4.88343502L4.5965759 3.70458064 4.58530644 13.0510655 12.3465531 5.56506693 16.3386759 7.09908023 10.6974547 13.3570485 14.4389172 26.9872962 10.3798607 26.9872962 7.38593935 16.5445998 4.55832802 19.3134733 4.5965759 26.9872962 0 26.8230352 0 4.88343502ZM37.6004007 25.5065568L33.5642246 25.5065568 33.2999044 19.2940078 32.9249385 14.8756944C32.8310263 11.7779574 30.0375649 12.5644295 29.1920135 12.9383708L29.4153538 25.5065568 25.5584646 25.3730307 24.9314725 1.04942628 28.859735-7.10542736e-15 28.9485247 9.84029232C33.2203351 8.47600401 35.5076951 8.49068846 36.0820963 14.7650487L37.6004007 25.5065568ZM81.0803889 28.3167517L82.2203124 25.6329114 84.8682952 25.6329114 85.8702532 28.5779984 83.4927375 30 81.0803889 28.3167517ZM66.1087333 13.4960386L65.4479328 8.93088061 68.8776068 9.05040525 68.8817048 2.6397869 71.9480239 3.91084601 71.8944085 9.60158456 76.301794 9.89220016 76.301794 12.6552682 71.9958337 12.896025 72.3567981 21.3057782C72.3567981 21.3057782 72.3656771 21.9635051 73.7135734 21.9635051 75.0611283 21.9635051 76.301794 21.2224524 76.301794 21.2224524L76.301794 25.5113378C76.3605318 26.8148393 74.518828 27.3667016 74.518828 27.3667016 68.631386 28.2607458 69.0637237 24.3543393 69.0637237 24.3543393L68.8721428 13.4960386 66.1087333 13.4960386ZM87.1225298 3.96514434L83.9868864 24.1098261 78.9979282 2.40005464 87.1225298 3.96514434ZM16.4390766 12.8263592L15.3626719 9.98577088C15.3626719 9.98542938 23.2198798 6.47345415 24.1552454 12.7758173L24.0418678 26.3176168 18.0772471 26.3169338C18.0772471 26.3169338 15.4593161 26.417676 14.6540616 23.4971769 14.6540616 23.4971769 12.6409252 16.0559148 20.5961433 14.6455241L20.6169748 12.8325061C20.6169748 12.8325061 19.1085739 11.2045806 16.4390766 12.8263592ZM56.3920636 18.7834669C56.560081 20.7604043 57.7846963 21.838175 58.5892678 21.9331117 60.6290411 22.1738685 62.3652217 20.3082597 62.2491121 17.933476 62.132661 15.5583508 61.1836354 14.0738548 59.2592888 14.0332165 57.3363082 13.9925781 56.1724797 16.2010518 56.3920636 18.7834669ZM20.5876059 23.7266642L20.6962025 17.6636918C17.445474 17.1913988 17.3846872 21.5909298 17.3846872 21.5909298 17.7022812 24.4335671 20.5876059 23.7266642 20.5876059 23.7266642ZM45.3595984 21.5431199C46.1641699 21.4481832 47.3887852 20.3704125 47.5564612 18.3934751 47.7763865 15.81106 46.6128996 13.6025863 44.6895775 13.6432247 42.7652309 13.6835215 41.8158638 15.168359 41.7000956 17.5434842 41.583303 19.9179264 43.3194837 21.7838767 45.3595984 21.5431199Z" fill="#fff"/>
  </g>
</svg>
