<?xml version="1.0" standalone="no"?>
<!DOCTYPE svg PUBLIC "-//W3C//DTD SVG 20010904//EN"
 "http://www.w3.org/TR/2001/REC-SVG-20010904/DTD/svg10.dtd">
<svg version="1.0" xmlns="http://www.w3.org/2000/svg"
 width="1280.000000pt" height="365.000000pt" viewBox="0 0 1280.000000 365.000000"
 preserveAspectRatio="xMidYMid meet">
<g transform="translate(0.000000,365.000000) scale(0.100000,-0.100000)"
fill="#000000" stroke="none">
<path d="M487 3485 c-94 -35 -176 -126 -202 -226 -13 -46 -15 -267 -15 -1445
0 -1366 0 -1393 20 -1457 25 -79 89 -155 164 -195 l51 -27 4665 0 4665 0 88
28 c48 15 116 41 150 58 34 17 569 324 1189 681 758 437 1140 663 1167 689 65
65 86 119 86 224 0 108 -20 161 -87 227 -31 31 -358 224 -1153 683 -611 352
-1147 658 -1192 681 -45 23 -117 52 -160 65 l-78 24 -4660 2 c-3956 1 -4666 0
-4698 -12z"/>
</g>
</svg>
