<?xml version="1.0" encoding="utf-8"?>
<svg id="master-artboard" viewBox="0 0 1400 980" version="1.1" xmlns="http://www.w3.org/2000/svg" x="0px" y="0px" style="enable-background:new 0 0 1400 980;" width="1400px" height="980px"><rect id="ee-background" x="0" y="0" width="1400" height="980" style="fill: white; fill-opacity: 0; pointer-events: none;"/><g transform="matrix(1.6752136752136753, 0, 0, 1.6752136752136753, 121.21366535057984, 0)"><g transform="matrix(1,0,0,1,-154.583,-207.856)">
        <g transform="matrix(2.45578,0,0,2.45578,154.583,207.856)">
            <path d="M245.853,47.585L93.936,47.585L111.257,0L60.618,0L0,166.547L50.637,166.547L76.618,95.17L228.531,95.17L219.871,118.962L93.41,118.962L67.363,190.339L67.363,190.34C65.948,194.226 65.224,198.331 65.224,202.467C65.224,221.918 81.23,237.924 100.681,237.924L176.57,237.924L193.89,190.339L118.001,190.339L126.728,166.547L202.551,166.547L193.891,190.339L244.53,190.339L279.171,95.17L279.171,95.169C280.586,91.283 281.31,87.178 281.31,83.042C281.31,63.591 265.304,47.585 245.853,47.585Z" style="fill-rule: nonzero; fill: rgb(255, 255, 255);"/>
        </g>
    </g></g></svg>